<svg height="496pt" viewBox="0 -64 496 496" width="496pt" xmlns="http://www.w3.org/2000/svg"><path d="m136 152-27.03125-27.03125c-3.183594-3.183594-7.496094-4.96875-12-4.96875-9.367188 0-16.96875 7.601562-16.96875 16.96875 0 4.503906 1.785156 8.816406 4.96875 12l27.03125 27.03125zm0 0" fill="#5cd6b3"/><path d="m80 184-27.03125-27.03125c-3.183594-3.183594-7.496094-4.96875-12-4.96875-9.367188 0-16.96875 7.601562-16.96875 16.96875 0 4.503906 1.785156 8.816406 4.96875 12l27.03125 27.03125zm0 0" fill="#5cd6b3"/><path d="m66.046875 170.046875-29.871094 18.128906 19.824219 19.824219 24-24zm0 0" fill="#48cfad"/><path d="m112 176 24-24-15.199219-15.199219-29.863281 18.136719zm0 0" fill="#48cfad"/><path d="m232 256-144-40 144-88v-40l-197.503906 119.910156c-16.449219 9.992188-26.496094 27.84375-26.496094 47.089844 0 15.886719 6.855469 31 18.816406 41.457031l41.894532 36.664063c2.121093 1.855468 4.839843 2.878906 7.65625 2.878906 6.425781 0 11.632812-5.207031 11.632812-11.632812v-.0625c0-2.777344-.992188-5.464844-2.800781-7.570313l-42.390625-49.453125c-1.808594-2.121094-2.808594-4.816406-2.808594-7.601562 0-6.449219 5.230469-11.679688 11.679688-11.679688h2.808593c1 0 2 .128906 2.976563.382812l182.535156 47.617188zm0 0" fill="#ccd1d9"/><path d="m232 256-16-4.449219v38.183594l16 4.175781zm0 0" fill="#aab2bd"/><path d="m456 24-192 16h-64v32h64l192-16zm0 0" fill="#e6e9ed"/><path d="m456 8h32v144h-32zm0 0" fill="#5cd6b3"/><path d="m456 110.992188-192 169.007812v-48l192-168zm0 0" fill="#e6e9ed"/><path d="m232 24h32v256h-32zm0 0" fill="#5cd6b3"/><path d="m280 218-16 14v48l16-14.078125zm0 0" fill="#ccd1d9"/><path d="m190.929688 283.199219 49.070312 12.800781-8-40-9.535156-2.648438c-13.671875 5.976563-24.824219 16.59375-31.535156 29.847657zm0 0" fill="#aab2bd"/><path d="m264 250.105469c-5.128906-1.328125-10.464844-2.105469-16-2.105469s-10.871094.777344-16 2.105469v29.894531h32zm0 0" fill="#48cfad"/><path d="m264 250.105469v29.894531l22.007812-19.367188c-6.511718-4.832031-13.945312-8.441406-22.007812-10.527343zm0 0" fill="#ccd1d9"/><path d="m296 312c0 26.507812-21.492188 48-48 48s-48-21.492188-48-48 21.492188-48 48-48 48 21.492188 48 48zm0 0" fill="#969faa"/><path d="m264 312c0 8.835938-7.164062 16-16 16s-16-7.164062-16-16 7.164062-16 16-16 16 7.164062 16 16zm0 0" fill="#aab2bd"/><g fill="#ccd1d9"><path d="m216 40h16v32h-16zm0 0"/><path d="m280 70.664062v-32l-16 1.335938v32zm0 0"/><path d="m440 57.335938 16-1.335938v-32l-16 1.335938zm0 0"/></g><path d="m216 137.777344 16-9.777344v-40l-16 9.710938zm0 0" fill="#aab2bd"/><path d="m440 78v47.078125l16-14.085937v-46.992188zm0 0" fill="#ccd1d9"/><path d="m448 0v16.640625l-176 14.664063v-15.304688h-48v16h-32v48h32v3.503906l-90.335938 54.847656-19.039062-19.039062c-4.648438-4.648438-11.082031-7.3125-17.65625-7.3125-13.769531 0-24.96875 11.199219-24.96875 24.96875 0 6.574219 2.664062 13.007812 7.3125 17.65625l10.40625 10.40625-10.808594 6.5625-20.277344-20.28125c-4.65625-4.648438-11.089843-7.3125-17.664062-7.3125-13.769531 0-24.96875 11.199219-24.96875 24.96875 0 6.574219 2.664062 13.007812 7.3125 17.65625l11.65625 11.65625-4.617188 2.796875c-18.71875 11.363281-30.351562 32.027344-30.351562 53.921875 0 18.191406 7.847656 35.503906 21.542969 47.488281l41.898437 36.664063c3.582032 3.121094 8.167969 4.847656 12.925782 4.847656 10.824218 0 19.632812-8.808594 19.632812-19.695312 0-4.679688-1.671875-9.214844-4.726562-12.777344l-42.386719-49.449219c-.574219-.671875-.886719-1.527344-.886719-2.398437 0-2.03125 1.648438-3.679688 3.679688-3.679688h2.816406c.3125 0 .640625.046875.929687.121094l139.980469 36.839844c-2.167969 5.949218-3.40625 12.34375-3.40625 19.039062 0 30.871094 25.128906 56 56 56s56-25.128906 56-56c0-16.367188-7.105469-31.070312-18.335938-41.320312l162.335938-142.046876v31.367188h48v-160zm-176 79.359375 170.542969-14.207031-170.542969 149.214844zm176-46.671875v15.953125l-176 14.664063v-15.945313zm-192-.6875v224.640625c-2.625-.375-5.28125-.640625-8-.640625s-5.375.265625-8 .640625v-224.640625zm-32 213.472656-116.113281-32.257812 116.113281-70.949219zm-16-181.472656v-16h16v16zm-117.375 79.3125c-1.671875-1.671875-2.625-3.984375-2.625-6.34375 0-4.945312 4.023438-8.96875 8.96875-8.96875 2.359375 0 4.671875.953125 6.34375 2.625l16.273438 16.269531-15.792969 9.585938zm-56 32c-1.671875-1.671875-2.625-3.984375-2.625-6.34375 0-4.945312 4.023438-8.96875 8.96875-8.96875 2.359375 0 4.671875.953125 6.34375 2.625l17.519531 17.519531-15.792969 9.582031zm24.839844 65.320312c-1.640625-.425781-3.3125-.632812-4.96875-.632812h-2.816406c-10.847657 0-19.679688 8.832031-19.679688 19.679688 0 4.6875 1.679688 9.230468 4.742188 12.808593l42.386718 49.457031c.558594.648438.871094 1.496094.871094 2.421876 0 2.871093-3.855469 4.609374-6.023438 2.738281l-41.898437-36.664063c-10.222656-8.9375-16.078125-21.867187-16.078125-35.441406 0-16.34375 8.679688-31.769531 22.648438-40.246094l185.351562-112.546875v21.296875l-155.886719 95.28125 155.09375 43.078125c-7.886719 3.921875-14.710937 9.632813-19.960937 16.617188zm228.535156 71.367188c0 22.054688-17.945312 40-40 40s-40-17.945312-40-40 17.945312-40 40-40 40 17.945312 40 40zm-16-50.632812v-25.734376l176-154v25.742188zm208-117.367188h-16v-128h16zm0 0"/><path d="m248 288c-13.230469 0-24 10.769531-24 24s10.769531 24 24 24 24-10.769531 24-24-10.769531-24-24-24zm0 32c-4.414062 0-8-3.585938-8-8s3.585938-8 8-8 8 3.585938 8 8-3.585938 8-8 8zm0 0"/></svg>