<svg height="496pt" viewBox="0 0 496.008 496" width="496pt" xmlns="http://www.w3.org/2000/svg"><path d="m144 456.003906h-136v32h384v-32zm0 0" fill="#969faa"/><path d="m104 456.003906h32v32h-32zm0 0" fill="#ccd1d9"/><path d="m40 456.003906h32v32h-32zm0 0" fill="#ccd1d9"/><path d="m184 40.003906h32v80h-32zm0 0" fill="#e6e9ed"/><path d="m288 40.003906h-176c-8.839844 0-16-7.160156-16-16s7.160156-16 16-16h176c8.839844 0 16 7.160156 16 16s-7.160156 16-16 16zm0 0" fill="#ccd1d9"/><path d="m232 8.003906-16 32h-32l-16-32zm0 0" fill="#aab2bd"/><path d="m184 40.003906h32v16h-32zm0 0" fill="#ccd1d9"/><path d="m184 104.003906h32v16h-32zm0 0" fill="#ccd1d9"/><path d="m160 120.003906h80v336h-80zm0 0" fill="#37bc9b"/><path d="m160 376.003906h80v80h-80zm0 0" fill="#48cfad"/><path d="m160 440.003906h80v16h-80zm0 0" fill="#37bc9b"/><path d="m160 120.003906h80v32h-80zm0 0" fill="#48cfad"/><path d="m240 392.003906h80v64h-80zm0 0" fill="#e6e9ed"/><path d="m240 256.003906h80c8.839844 0 16 7.160156 16 16v104c0 8.839844-7.160156 16-16 16h-80zm0 0" fill="#fcd770"/><path d="m190.863281 456.003906c.671875-2.574218 1.136719-5.222656 1.136719-8 0-17.648437-14.351562-32-32-32v40zm0 0" fill="#37bc9b"/><path d="m176 448.003906c0 8.835938-7.164062 16-16 16s-16-7.164062-16-16c0-8.835937 7.164062-16 16-16s16 7.164063 16 16zm0 0" fill="#656d78"/><path d="m336 426.78125v-16.984375l-16 5.710937v16.496094h1.382812zm0 0" fill="#ccd1d9"/><path d="m472 96.003906h-48c-8.839844 0-16-7.160156-16-16s7.160156-16 16-16h48c8.839844 0 16 7.160156 16 16s-7.160156 16-16 16zm0 0" fill="#aab2bd"/><path d="m432 96.003906h32v32h-32zm0 0" fill="#aab2bd"/><path d="m432 96.003906h32v16h-32zm0 0" fill="#969faa"/><path d="m240 256.003906h16v136h-16zm0 0" fill="#ffc729"/><path d="m320 408.003906v-16h-80v64h80v-16h-64v-32zm0 0" fill="#ccd1d9"/><path d="m192 176.003906h16v16h-16zm0 0"/><path d="m192 208.003906h16v16h-16zm0 0"/><path d="m192 240.003906h16v16h-16zm0 0"/><path d="m192 272.003906h16v16h-16zm0 0"/><path d="m192 304.003906h16v16h-16zm0 0"/><path d="m192 336.003906h16v16h-16zm0 0"/><path d="m264 280.003906h16v88h-16zm0 0"/><path d="m296 280.003906h16v88h-16zm0 0"/><path d="m472 56.003906h-48c-10.414062 0-19.214844 6.710938-22.527344 16h-34.5625c-39.101562 0-70.910156 31.808594-70.910156 70.902344 0 23.355469 11.488281 45.195312 30.734375 58.441406l58.464844 40.191406c24.296875 16.695313 38.800781 44.265626 38.800781 73.753907 0 37.726562-23.871094 71.589843-59.398438 84.285156l-36.601562 13.074219v-14.128906c9.289062-3.3125 16-12.113282 16-22.527344v-103.992188c0-13.230468-10.769531-24-24-24h-72v-136h-24v-64h64c13.230469 0 24-10.769531 24-24 0-13.230468-10.769531-23.99999975-24-23.99999975h-176c-13.230469 0-24 10.76953175-24 23.99999975 0 13.230469 10.769531 24 24 24h64v64h-24v313.472656c-9.289062 3.3125-16 12.113282-16 22.527344h-136v48h400v-48h-72v-18.367187l41.984375-14.992188c41.878906-14.953125 70.015625-54.878906 70.015625-99.351562 0-34.753907-17.097656-67.25-45.734375-86.9375l-58.464844-40.191407c-14.90625-10.257812-23.800781-27.167968-23.800781-45.257812 0-30.269531 24.632812-54.902344 54.910156-54.902344h34.570313c3.3125 9.289063 12.113281 16 22.527343 16v32h16v32h16v-32h16v-32c13.230469 0 24-10.769531 24-24 0-13.230468-10.777343-24-24.007812-24zm-152 208c4.40625 0 8 3.585938 8 8v104c0 4.417969-3.59375 8-8 8h-72v-120zm-136 184c0-10.414062-6.710938-19.214844-16-22.527344v-41.472656h64v64zm48-80h-64v-208h64zm-43.054688-336-8-16h38.109376l-8 16zm107.054688-8c0 4.417969-3.59375 8-8 8h-59.054688l8-16h51.054688c4.40625 0 8 3.585938 8 8zm-192 0c0-4.414062 3.59375-8 8-8h51.054688l8 16h-59.054688c-4.40625 0-8-3.582031-8-8zm88 24h16v64h-16zm40 80v16h-64v-16zm-72 312c4.40625 0 8 3.585938 8 8 0 4.417969-3.59375 8-8 8s-8-3.582031-8-8c0-4.414062 3.59375-8 8-8zm-80 24h16v16h-16zm-16 16h-16v-16h16zm48-16h16v16h-16zm-96 0h16v16h-16zm368 16h-240v-14.238281c4.257812 3.839844 9.832031 6.238281 16 6.238281 7.0625 0 13.359375-3.128906 17.761719-8h206.238281zm-136-32v-48h64v48zm208-328h-16v-16h16zm16-32h-48c-4.40625 0-8-3.582031-8-8 0-4.414062 3.59375-8 8-8h48c4.40625 0 8 3.585938 8 8 0 4.417969-3.59375 8-8 8zm0 0"/></svg>