<svg id="Layer_3" enable-background="new 0 0 64 64" height="512" viewBox="0 0 64 64" width="512" xmlns="http://www.w3.org/2000/svg"><path d="m18 32-.328-1.313c-.44-1.758-1.349-3.364-2.63-4.646l-.083-.083c-1.282-1.282-2.887-2.191-4.646-2.63l-1.313-.328c-3.866 0-7-3.134-7-7s3.134-7 7-7 7 3.134 7 7l.328 1.313c.44 1.758 1.349 3.364 2.63 4.646l.083.083c1.282 1.282 2.887 2.191 4.646 2.63l1.313.328" fill="#8892a0"/><path d="m18 32-.328 1.313c-.44 1.758-1.349 3.364-2.63 4.646l-.083.083c-1.282 1.282-2.887 2.191-4.646 2.63l-1.313.328c-3.866 0-7 3.134-7 7s3.134 7 7 7 7-3.134 7-7l.328-1.313c.44-1.758 1.349-3.364 2.63-4.646l.083-.083c1.282-1.282 2.887-2.191 4.646-2.63l1.313-.328c3.866 0 7-3.134 7-7s-3.134-7-7-7-7 3.134-7 7z" fill="#4d5d7a"/><circle cx="9" cy="48" fill="#8892a0" r="3"/><circle cx="25" cy="32" fill="#8892a0" r="3"/><circle cx="9" cy="16" fill="#4d5d7a" r="3"/><path d="m48 32-.328-1.313c-.44-1.758-1.349-3.364-2.63-4.646l-.083-.083c-1.282-1.282-2.887-2.191-4.646-2.63l-1.313-.328c-3.866 0-7-3.134-7-7s3.134-7 7-7 7 3.134 7 7l.328 1.313c.44 1.758 1.349 3.364 2.63 4.646l.083.083c1.282 1.282 2.887 2.191 4.646 2.63l1.313.328" fill="#8892a0"/><path d="m48 32-.328 1.313c-.44 1.758-1.349 3.364-2.63 4.646l-.083.083c-1.282 1.282-2.887 2.191-4.646 2.63l-1.313.328c-3.866 0-7 3.134-7 7s3.134 7 7 7 7-3.134 7-7l.328-1.313c.44-1.758 1.349-3.364 2.63-4.646l.083-.083c1.282-1.282 2.887-2.191 4.646-2.63l1.313-.328c3.866 0 7-3.134 7-7s-3.134-7-7-7-7 3.134-7 7z" fill="#4d5d7a"/><circle cx="39" cy="48" fill="#8892a0" r="3"/><circle cx="55" cy="32" fill="#8892a0" r="3"/><circle cx="39" cy="16" fill="#4d5d7a" r="3"/><path d="m9 52c-2.206 0-4-1.794-4-4s1.794-4 4-4 4 1.794 4 4-1.794 4-4 4zm0-6c-1.103 0-2 .897-2 2s.897 2 2 2 2-.897 2-2-.897-2-2-2z"/><path d="m9 56c-4.411 0-8-3.589-8-8 0-4.369 3.521-7.931 7.873-7.999l1.197-.299c1.582-.396 3.027-1.215 4.182-2.368l.082-.082c1.153-1.154 1.973-2.6 2.368-4.182l.299-1.197c.068-4.353 3.63-7.873 7.999-7.873 4.411 0 8 3.589 8 8 0 4.369-3.521 7.931-7.873 7.999l-1.197.299c-1.582.396-3.027 1.215-4.182 2.368l-.082.082c-1.153 1.154-1.973 2.6-2.368 4.182l-.299 1.197c-.068 4.352-3.63 7.873-7.999 7.873zm16-30c-3.309 0-6 2.691-6 6 0 .082-.01.163-.03.243l-.328 1.312c-.482 1.934-1.483 3.701-2.894 5.111l-.082.082c-1.41 1.41-3.178 2.411-5.111 2.894l-1.313.328c-.079.02-.16.03-.242.03-3.309 0-6 2.691-6 6s2.691 6 6 6 6-2.691 6-6c0-.082.01-.163.03-.242l.328-1.312c.482-1.934 1.483-3.701 2.894-5.111l.082-.082c1.41-1.41 3.178-2.411 5.111-2.894l1.312-.328c.08-.021.161-.031.243-.031 3.309 0 6-2.691 6-6s-2.691-6-6-6z"/><path d="m25 36c-2.206 0-4-1.794-4-4s1.794-4 4-4 4 1.794 4 4-1.794 4-4 4zm0-6c-1.103 0-2 .897-2 2s.897 2 2 2 2-.897 2-2-.897-2-2-2z"/><path d="m17.03 32.243-.328-1.313c-.396-1.582-1.215-3.028-2.368-4.181l-.086-.087c-1.15-1.149-2.596-1.968-4.178-2.363l-1.197-.299c-4.352-.069-7.873-3.631-7.873-8 0-4.411 3.589-8 8-8 4.369 0 7.931 3.521 7.999 7.873l.299 1.197c.396 1.582 1.215 3.028 2.368 4.181l.086.087c1.15 1.149 2.596 1.968 4.178 2.363l1.312.328-.484 1.94-1.312-.328c-1.934-.483-3.701-1.483-5.111-2.894l-.086-.087c-1.406-1.405-2.407-3.172-2.89-5.106l-.328-1.313c-.021-.078-.031-.159-.031-.241 0-3.309-2.691-6-6-6s-6 2.691-6 6 2.691 6 6 6c.082 0 .163.01.242.03l1.312.328c1.934.483 3.701 1.483 5.111 2.894l.086.087c1.406 1.405 2.407 3.172 2.89 5.106l.328 1.313z"/><path d="m9 20c-2.206 0-4-1.794-4-4s1.794-4 4-4 4 1.794 4 4-1.794 4-4 4zm0-6c-1.103 0-2 .897-2 2s.897 2 2 2 2-.897 2-2-.897-2-2-2z"/><path d="m39 52c-2.206 0-4-1.794-4-4s1.794-4 4-4 4 1.794 4 4-1.794 4-4 4zm0-6c-1.103 0-2 .897-2 2s.897 2 2 2 2-.897 2-2-.897-2-2-2z"/><path d="m39 56c-4.411 0-8-3.589-8-8 0-4.369 3.521-7.931 7.873-7.999l1.197-.299c1.582-.396 3.027-1.215 4.182-2.368l.082-.082c1.153-1.154 1.973-2.6 2.368-4.182l.299-1.197c.068-4.353 3.63-7.873 7.999-7.873 4.411 0 8 3.589 8 8 0 4.369-3.521 7.931-7.873 7.999l-1.197.299c-1.582.396-3.027 1.215-4.182 2.368l-.082.082c-1.153 1.154-1.973 2.6-2.368 4.182l-.299 1.197c-.068 4.352-3.63 7.873-7.999 7.873zm16-30c-3.309 0-6 2.691-6 6 0 .082-.01.163-.03.243l-.328 1.312c-.482 1.934-1.483 3.701-2.894 5.111l-.082.082c-1.41 1.41-3.178 2.411-5.111 2.894l-1.312.328c-.08.02-.161.03-.243.03-3.309 0-6 2.691-6 6s2.691 6 6 6 6-2.691 6-6c0-.082.01-.163.03-.242l.328-1.312c.482-1.934 1.483-3.701 2.894-5.111l.082-.082c1.41-1.41 3.178-2.411 5.111-2.894l1.312-.328c.08-.021.161-.031.243-.031 3.309 0 6-2.691 6-6s-2.691-6-6-6z"/><path d="m55 36c-2.206 0-4-1.794-4-4s1.794-4 4-4 4 1.794 4 4-1.794 4-4 4zm0-6c-1.103 0-2 .897-2 2s.897 2 2 2 2-.897 2-2-.897-2-2-2z"/><path d="m47.03 32.243-.328-1.313c-.396-1.582-1.215-3.028-2.368-4.181l-.086-.087c-1.15-1.149-2.596-1.968-4.178-2.363l-1.197-.299c-4.352-.069-7.873-3.631-7.873-8 0-4.411 3.589-8 8-8 4.369 0 7.931 3.521 7.999 7.873l.299 1.197c.396 1.582 1.215 3.028 2.368 4.181l.086.087c1.15 1.149 2.596 1.968 4.178 2.363l1.312.328-.484 1.94-1.312-.328c-1.934-.483-3.701-1.483-5.111-2.894l-.086-.087c-1.406-1.405-2.407-3.172-2.89-5.106l-.328-1.313c-.021-.078-.031-.159-.031-.241 0-3.309-2.691-6-6-6s-6 2.691-6 6 2.691 6 6 6c.082 0 .163.01.242.03l1.312.328c1.934.483 3.701 1.483 5.111 2.894l.086.087c1.406 1.405 2.407 3.172 2.89 5.106l.328 1.313z"/><path d="m39 20c-2.206 0-4-1.794-4-4s1.794-4 4-4 4 1.794 4 4-1.794 4-4 4zm0-6c-1.103 0-2 .897-2 2s.897 2 2 2 2-.897 2-2-.897-2-2-2z"/></svg>